<svg xmlns="http://www.w3.org/2000/svg" width="148.242" height="22.361" viewBox="0 0 148.242 22.361">
  <g id="bike-icon" transform="translate(183.71 -27.811) rotate(90)">
    <g id="Grupo_4" data-name="Grupo 4" transform="translate(28.057 133.468) rotate(-90)">
      <text id="_-_motor_amor" data-name="- motor + amor" transform="translate(0 14)" fill="#fff" font-size="15" font-family="Larsseit-Bold, Larsseit" font-weight="700"><tspan x="0" y="0">- motor + amor</tspan></text>
    </g>
    <path id="bicycle" d="M31.346,5.383a8.443,8.443,0,0,0-3.268.655L25.67,1.368h3.364a.662.662,0,0,1,0,1.324h-.718a.684.684,0,0,0,0,1.368h.718a2.03,2.03,0,0,0,0-4.059H24.549a.684.684,0,0,0-.608,1l1.2,2.322H15.267l-1-1.952h1.575a.684.684,0,1,0,0-1.368H11.36a.684.684,0,1,0,0,1.368h1.375l1.329,2.605L12.5,6.393a8.488,8.488,0,1,0,4.448,8.163h2.007l-.78,2.537h-.449a.684.684,0,0,0,0,1.368h2.462a.684.684,0,0,0,0-1.368h-.582l.9-2.928L26.2,5.38l.663,1.286a8.485,8.485,0,1,0,4.483-1.283Zm-16.562,0,3.983,7.807H16.951a8.486,8.486,0,0,0-3.3-6.051Zm.794,7.807H9.745l3.161-4.9A7.117,7.117,0,0,1,15.577,13.188ZM8.489,20.994A7.121,7.121,0,1,1,11.757,7.548L7.915,13.5a.684.684,0,0,0,.575,1.055h7.088A7.131,7.131,0,0,1,8.489,20.994Zm11.464-8.488L15.965,4.687h9.054Zm11.392,8.488A7.118,7.118,0,0,1,27.492,7.888l3.246,6.3a.684.684,0,0,0,1.216-.627l-3.247-6.3a7.121,7.121,0,1,1,2.639,13.734Z" transform="translate(27.811 183.71) rotate(-90)" fill="#fff"/>
  </g>
</svg>
