<svg xmlns="http://www.w3.org/2000/svg" width="36" height="20" viewBox="0 0 36 20">
  <g id="bike" transform="translate(-257 -152) rotate(90)">
    <path id="bicycle" d="M24.1,99.948a6.49,6.49,0,0,0-2.512.5l-1.85-3.59h2.586a.509.509,0,0,1,0,1.018h-.552a.526.526,0,0,0,0,1.051h.552a1.56,1.56,0,0,0,0-3.12H18.871a.526.526,0,0,0-.467.767l.92,1.785H11.736l-.765-1.5h1.211a.526.526,0,1,0,0-1.051H8.733a.526.526,0,1,0,0,1.051H9.79l1.022,2-1.2,1.861A6.525,6.525,0,1,0,13.03,107h1.543l-.6,1.95h-.345a.526.526,0,1,0,0,1.051h1.893a.526.526,0,1,0,0-1.051h-.448l.692-2.251,4.375-6.752.51.989a6.523,6.523,0,1,0,3.446-.987Zm-12.731,0,3.062,6h-1.4a6.523,6.523,0,0,0-2.537-4.652Zm.61,6H7.491l2.43-3.764A5.471,5.471,0,0,1,11.974,105.948Zm-5.449,6a5.474,5.474,0,1,1,2.512-10.336l-2.954,4.576a.526.526,0,0,0,.442.811h5.449A5.481,5.481,0,0,1,6.526,111.948Zm8.813-6.525-3.066-6.01h6.96Zm8.757,6.525a5.472,5.472,0,0,1-2.962-10.074l2.495,4.841a.526.526,0,0,0,.935-.482l-2.5-4.842A5.474,5.474,0,1,1,24.1,111.948Z" transform="translate(57.19 -259.378) rotate(-90)"/>
    <rect id="Retângulo_34" data-name="Retângulo 34" width="20" height="36" transform="translate(152 -293)" fill="#fff" opacity="0"/>
  </g>
</svg>
