<svg xmlns="http://www.w3.org/2000/svg" width="80" height="81.026" viewBox="0 0 80 81.026">
  <g id="claro" transform="translate(-17.272 -16.258)">
    <path id="Caminho_14" data-name="Caminho 14" d="M94.13,41.017A40.442,40.442,0,0,0,72.854,19.43,39.667,39.667,0,0,0,29,28.108a40.071,40.071,0,0,0-8.585,12.908,41.079,41.079,0,0,0,0,31.509A40.071,40.071,0,0,0,29,85.434,39.548,39.548,0,0,0,41.72,94.112a39.78,39.78,0,0,0,31.134,0A40.442,40.442,0,0,0,94.13,72.525a41.073,41.073,0,0,0,0-31.509ZM74.41,51.685a6.557,6.557,0,0,1,4.79,1.991A6.669,6.669,0,0,1,81.159,58.5a6.8,6.8,0,0,1-6.749,6.812A6.854,6.854,0,0,1,67.691,58.5a6.575,6.575,0,0,1,1.991-4.821A6.37,6.37,0,0,1,74.41,51.685Zm-48.46-.871a7.644,7.644,0,0,1,5.879-2.457A7.788,7.788,0,0,1,36.9,50.1a8.329,8.329,0,0,1,2.924,4.448h-3.39A5.6,5.6,0,0,0,34.6,52.4a5.054,5.054,0,0,0-6.407.684,5.257,5.257,0,0,0,0,7.341,4.98,4.98,0,0,0,3.639,1.525,5.211,5.211,0,0,0,2.768-.809,5.83,5.83,0,0,0,1.835-2.146h3.39A8.445,8.445,0,0,1,36.9,63.442a8.116,8.116,0,0,1-5.07,1.711,7.956,7.956,0,0,1-5.879-2.427,8.172,8.172,0,0,1-2.457-5.972,8.05,8.05,0,0,1,2.457-5.94Zm21.835,2.551c.871-1.151,2.395-1.742,4.572-1.711a7.533,7.533,0,0,1,3.764.84,3.325,3.325,0,0,1,1.618,3.2v9.518H54.5V63.878a6.312,6.312,0,0,1-4.168,1.338,4.165,4.165,0,0,1-2.644-.9A3.461,3.461,0,0,1,46.6,61.546a3.653,3.653,0,0,1,1.773-3.515,7.832,7.832,0,0,1,2.8-.84l2.488-.4a1.07,1.07,0,0,0,.746-1,1.163,1.163,0,0,0-.56-1.089,2.879,2.879,0,0,0-1.587-.311,1.937,1.937,0,0,0-1.711.622,2.088,2.088,0,0,0-.467,1.182H46.852a5.109,5.109,0,0,1,.934-2.831Zm-6.315-5.008h3.235V65.216H41.471ZM63,53.956a5.126,5.126,0,0,1,2.3-1.835l1.244-.342.839-.062.031,3.3-1-.062a3.146,3.146,0,0,0-1.773.56,3.05,3.05,0,0,0-1.12,1.244,4.612,4.612,0,0,0-.4,2.27v6.19h-3.2V52.275l3.079.031v1.649h0Zm26.531-9.58L81.72,52.182,79.667,50.13l7.807-7.807Zm-13.281-3.67v8.367H73.352V40.706Zm6.906,17.6V55.418H91.7V58.31Z" fill="#cc2229" fill-rule="evenodd"/>
    <path id="Caminho_15" data-name="Caminho 15" d="M128.492,88.312a6.555,6.555,0,0,0-4.79-1.991,6.371,6.371,0,0,0-4.728,1.991,6.576,6.576,0,0,0-1.991,4.821,6.854,6.854,0,0,0,6.719,6.812,6.8,6.8,0,0,0,6.749-6.812,6.667,6.667,0,0,0-1.959-4.821Zm-2.27,7.34a3.491,3.491,0,0,1-5.007,0,3.557,3.557,0,0,1-1.058-2.519,3.472,3.472,0,0,1,1.058-2.55,3.178,3.178,0,0,1,2.488-1.026,3.311,3.311,0,0,1,2.551,1.026,3.6,3.6,0,0,1-.032,5.07Z" transform="translate(-49.292 -34.636)" fill="#fff" fill-rule="evenodd"/>
    <path id="Caminho_16" data-name="Caminho 16" d="M126.8,99.87a3.335,3.335,0,0,0,2.519-1.058,3.693,3.693,0,0,0,1.058-2.519,3.6,3.6,0,0,0-1.058-2.551,3.566,3.566,0,0,0-5.007,0,3.472,3.472,0,0,0-1.058,2.551,3.557,3.557,0,0,0,1.058,2.519A3.316,3.316,0,0,0,126.8,99.87Z" transform="translate(-52.395 -37.796)" fill="#cc2229" fill-rule="evenodd"/>
    <path id="Caminho_17" data-name="Caminho 17" d="M37.911,79.738a7.646,7.646,0,0,0-5.879,2.457,8.054,8.054,0,0,0-2.457,5.941,8.172,8.172,0,0,0,2.457,5.972,7.956,7.956,0,0,0,5.879,2.427,8.112,8.112,0,0,0,5.07-1.711A8.445,8.445,0,0,0,45.9,90.375h-3.39a5.835,5.835,0,0,1-1.835,2.146,5.211,5.211,0,0,1-2.768.809,4.979,4.979,0,0,1-3.639-1.525,5.257,5.257,0,0,1,0-7.341,5.054,5.054,0,0,1,6.407-.684,5.593,5.593,0,0,1,1.835,2.146H45.9a8.327,8.327,0,0,0-2.924-4.448A7.79,7.79,0,0,0,37.911,79.738Zm20.528,3.3c-2.177-.031-3.7.56-4.572,1.711a5.112,5.112,0,0,0-.933,2.831h3.235a2.09,2.09,0,0,1,.467-1.182,1.937,1.937,0,0,1,1.711-.622,2.885,2.885,0,0,1,1.587.311,1.163,1.163,0,0,1,.56,1.089,1.07,1.07,0,0,1-.746,1l-2.488.4a7.842,7.842,0,0,0-2.8.84,3.653,3.653,0,0,0-1.773,3.515,3.463,3.463,0,0,0,1.089,2.768,4.161,4.161,0,0,0,2.644.9,6.313,6.313,0,0,0,4.168-1.338V96.6h3.235V87.078a3.324,3.324,0,0,0-1.618-3.2A7.543,7.543,0,0,0,58.44,83.035Zm1.369,7.31L60.43,90v1.306a2.725,2.725,0,0,1-.9,2.333,3.41,3.41,0,0,1-2.022.653,1.767,1.767,0,0,1-1.151-.373,1.851,1.851,0,0,1,.311-2.738,4.283,4.283,0,0,1,1.524-.435Z" transform="translate(-6.082 -31.381)" fill="#fff" fill-rule="evenodd"/>
    <path id="Caminho_18" data-name="Caminho 18" d="M86.156,100.038l-.622.342-1.618.4a4.293,4.293,0,0,0-1.524.435,1.851,1.851,0,0,0-.311,2.738,1.767,1.767,0,0,0,1.151.373,3.412,3.412,0,0,0,2.022-.653,2.725,2.725,0,0,0,.9-2.333v-1.306h0Z" transform="translate(-31.808 -41.417)" fill="#cc2229" fill-rule="evenodd"/>
    <path id="Caminho_19" data-name="Caminho 19" d="M68.364,72.259H65.129V89.117h3.235Zm20.591,3.764a5.126,5.126,0,0,0-2.3,1.835V76.209l-3.079-.031v12.94h3.2v-6.19a4.612,4.612,0,0,1,.4-2.27,3.046,3.046,0,0,1,1.12-1.244,3.143,3.143,0,0,1,1.773-.56l1,.062-.031-3.3-.839.062-1.245.342Zm16.423.062,7.807-7.807-2.052-2.052-7.807,7.807ZM99.9,72.974V64.607H97.011v8.367H99.9Zm6.906,6.345v2.893h8.554V79.319Z" transform="translate(-23.658 -23.901)" fill="#fff" fill-rule="evenodd"/>
  </g>
</svg>
