<svg xmlns="http://www.w3.org/2000/svg" xmlns:xlink="http://www.w3.org/1999/xlink" width="98.3" height="32.8" viewBox="0 0 98.3 32.8">
  <defs>
    <linearGradient id="linear-gradient" x1="0.497" y1="0.142" x2="0.498" y2="0.948" gradientUnits="objectBoundingBox">
      <stop offset="0" stop-color="#0071b6"/>
      <stop offset="1" stop-color="#fff"/>
    </linearGradient>
  </defs>
  <g id="engie" transform="translate(-43.703 -183.856)">
    <path id="path4257" d="M73.748,193.162c-.913,0-1.381.74-1.5,1.645-.134,1-.658,4.466-.775,5.346-.07.527-.109,1.079-.62,1.306s-1.134-.121-1.665-.572l-8.393-7.145a2.374,2.374,0,0,0-1.56-.579,2.265,2.265,0,0,0-2.327,2.537v11.161a1.344,1.344,0,0,0,1.346,1.425,1.42,1.42,0,0,0,1.448-1.323s.864-5.319.971-5.912c.122-.689.231-1.23.9-1.436.6-.187,1.171.162,2.02.9s7.916,7.124,7.916,7.124a2.273,2.273,0,0,0,1.7.643c.7,0,1.958-.285,1.958-2.41V194.758a1.428,1.428,0,0,0-1.417-1.6" transform="translate(11.565 8.151)" fill="#006eb5"/>
    <path id="path4259" d="M101.068,205.225c-6.169,1.328-13.227-.091-13.227-4.454,0-3.3,3.059-4.641,5.469-4.834,2.527-.2,4.5.33,5.521,1.385.635.659.459,1.559-.789,1.633-1.15.069-3.3.136-5.1.2-1.019.038-1.562.583-1.562,1.316,0,.581.437,1.247,1.608,1.253,1.68.008,5.944.034,8.06.04,1.4,0,2.087-.779,2.087-2.386,0-2.547-2.308-6.411-9.063-6.411-6.12,0-10.547,3.048-10.547,8.03,0,7.067,10.4,9.223,18.018,6.6.722-.248,1.377-.766,1.167-1.573-.183-.716-.768-.988-1.644-.8" transform="translate(34.885 7.982)" fill="#006eb5"/>
    <path id="path4261" d="M62.921,205.225c-6.168,1.328-13.227-.091-13.227-4.454,0-3.3,3.057-4.641,5.469-4.834,2.527-.2,4.5.33,5.521,1.385.636.659.459,1.559-.788,1.633-1.15.069-3.3.136-5.1.2-1.019.038-1.563.583-1.563,1.316,0,.581.438,1.247,1.608,1.253,1.68.008,5.945.034,8.062.04,1.4,0,2.086-.779,2.086-2.386,0-2.547-2.308-6.411-9.063-6.411-6.12,0-10.548,3.048-10.548,8.03,0,7.067,10.4,9.223,18.019,6.6.722-.248,1.376-.766,1.167-1.573-.183-.716-.768-.988-1.644-.8" transform="translate(1.469 7.982)" fill="#006eb5"/>
    <path id="path4263" d="M80.2,196.3c.135,3.852.5,7.048.6,8.167.132,1.445.879,1.857,1.629,1.857.72,0,1.482-.376,1.615-1.844.111-1.236.476-5.047.655-8.817a.225.225,0,0,0-.284-.252l-4.015.65a.241.241,0,0,0-.2.239" transform="translate(31.968 10.115)" fill="#006eb5"/>
    <path id="path4265" d="M82.493,192.968a2.219,2.219,0,0,0-2.358,2.328c0,.164.021.619.047,1.186a.245.245,0,0,0,.276.23l4.19-.68a.241.241,0,0,0,.2-.23c.01-.2.015-.4.019-.494a2.251,2.251,0,0,0-2.377-2.339" transform="translate(31.913 7.981)" fill="#006eb5"/>
    <path id="path4267" d="M87.237,199.113c-1.4,0-5.707.033-8.466.04-1.339,0-1.673.721-1.673,1.317,0,.518.359,1.187,1.607,1.252,1.9.1,4.322.212,5.439.27,1.5.077,1.524.85,1.017,1.513-1.021,1.329-3.506,2.2-6.083,2.2-3.37,0-7.077-1.917-7.077-4.955,0-2.85,3.173-5.99,12.6-4.664.829.116,1.645-.033,1.848-.8.216-.815-.314-1.339-1.385-1.621a22.712,22.712,0,0,0-5.944-.695c-6.345,0-11.433,3.03-11.433,7.924,0,5.225,5.07,7.781,11.389,7.781,7.057,0,10.494-3.84,10.494-7.2a2.058,2.058,0,0,0-2.334-2.363" transform="translate(21.01 7.982)" fill="#006eb5"/>
    <path id="path3382" d="M43.7,199.657c1.888-3.333,19.737-15.913,47.749-15.8,22.728.092,41.206,7.757,50.551,15.918Z" transform="translate(0 0)" fill-rule="evenodd" fill="url(#linear-gradient)"/>
  </g>
</svg>
