<svg id="figma" xmlns="http://www.w3.org/2000/svg" width="65" height="97.5" viewBox="0 0 65 97.5">
  <path id="path0_fill" d="M16.25,232.5A16.256,16.256,0,0,0,32.5,216.25V200H16.25a16.25,16.25,0,1,0,0,32.5Z" transform="translate(0 -135)" fill="#0acf83"/>
  <path id="path1_fill" d="M0,116.25A16.256,16.256,0,0,1,16.25,100H32.5v32.5H16.25A16.256,16.256,0,0,1,0,116.25Z" transform="translate(0 -67.5)" fill="#a259ff"/>
  <path id="path1_fill_1_" d="M0,16.25A16.256,16.256,0,0,1,16.25,0H32.5V32.5H16.25A16.256,16.256,0,0,1,0,16.25Z" fill="#f24e1e"/>
  <path id="path2_fill" d="M100,0h16.25a16.25,16.25,0,0,1,0,32.5H100Z" transform="translate(-67.5)" fill="#ff7262"/>
  <path id="path3_fill" d="M132.5,116.25A16.25,16.25,0,1,1,116.25,100,16.256,16.256,0,0,1,132.5,116.25Z" transform="translate(-67.5 -67.5)" fill="#1abcfe"/>
</svg>
