<svg id="fnac" xmlns="http://www.w3.org/2000/svg" width="79" height="81.533" viewBox="0 0 79 81.533">
  <path id="Caminho_27" data-name="Caminho 27" d="M287.471,192.757c0,1.6,1.54,1.987,3.267,1.987,1.8,0,4.951-.659,4.951-4.861-.9.632-3.412.662-5.064.9C288.973,191.057,287.471,191.192,287.471,192.757Z" transform="translate(-241.968 -159.827)" fill="#ebb300"/>
  <path id="Caminho_28" data-name="Caminho 28" d="M22.832,21.792h2.249v2.167h.1c1.187-1.746,4.63-2.538,6.608-2.538,4.98,0,7.914,2.508,7.914,6.361v9.573H35.02v-8.79c0-2.559-2.638-3.872-4.814-3.872-2.539,0-4.894,1.344-4.894,4.5v8.158H20.629v-12.7h-7.2v12.7H9.061v-12.7H7.119L0,69.873l68,11.66,7.3-46.355c-1.622,1.7-4.174,2.6-7.328,2.6-5.735,0-9.6-3.311-9.6-7.977,0-4.847,3.529-8.429,9.705-8.429,3.963,0,7.638,1.506,8.668,4.6L79,11.66,11,0,7.57,21.792H9.061v-1.2c0-2.739,2.467-5.92,7.848-5.92,3.588,0,8.02.95,8.02,5.7H20.814c0-1.688-2.638-2.322-3.9-2.322-1.794,0-3.482,1.52-3.482,2.814v.933h9.405ZM58.1,37.566H53.525V35.85c-1.69,1.415-4.38,1.927-6.746,1.927-3.68,0-6.609-1.475-6.609-4.666,0-3.522,3.3-4.365,6.609-4.726,3.267-.391,6.308-.3,6.308-2.047,0-1.836-1.577-2.107-3.455-2.107-2.027,0-3.342.662-3.53,2.348H40.771c.3-4,4.452-5.208,8.808-5.208,3.868,0,8.523,1.325,8.523,5.058V37.566Z" fill="#ebb300"/>
  <path id="Caminho_29" data-name="Caminho 29" d="M406.219,155.361c-3.345,0-4.448,2.769-4.448,5.057,0,2.227,1.066,4.907,4.338,4.907,2.427,0,3.824-1.264,4.154-3.161h3.806l.649-4.124h-4.639C409.749,156.294,408.388,155.361,406.219,155.361Z" transform="translate(-338.176 -130.77)" fill="#ebb300"/>
</svg>
