<svg id="instagram" xmlns="http://www.w3.org/2000/svg" width="24" height="24" viewBox="0 0 24 24">
  <g id="Grupo_35" data-name="Grupo 35">
    <g id="Grupo_34" data-name="Grupo 34">
      <path id="Caminho_9" data-name="Caminho 9" d="M17.028,0H6.972A6.979,6.979,0,0,0,0,6.972V17.028A6.979,6.979,0,0,0,6.972,24H17.028A6.979,6.979,0,0,0,24,17.028V6.972A6.979,6.979,0,0,0,17.028,0Zm5.1,17.028a5.1,5.1,0,0,1-5.1,5.1H6.972a5.1,5.1,0,0,1-5.1-5.1V6.972a5.1,5.1,0,0,1,5.1-5.1H17.028a5.1,5.1,0,0,1,5.1,5.1Z"/>
    </g>
  </g>
  <g id="Grupo_37" data-name="Grupo 37" transform="translate(5.531 5.531)">
    <g id="Grupo_36" data-name="Grupo 36">
      <path id="Caminho_10" data-name="Caminho 10" d="M124.469,118a6.469,6.469,0,1,0,6.469,6.469A6.476,6.476,0,0,0,124.469,118Zm0,11.062a4.594,4.594,0,1,1,4.594-4.594A4.6,4.6,0,0,1,124.469,129.062Z" transform="translate(-118 -118)"/>
    </g>
  </g>
  <g id="Grupo_39" data-name="Grupo 39" transform="translate(17.625 4.5)">
    <g id="Grupo_38" data-name="Grupo 38">
      <circle id="Elipse_4" data-name="Elipse 4" cx="0.937" cy="0.937" r="0.937"/>
    </g>
  </g>
</svg>
