<svg xmlns="http://www.w3.org/2000/svg" width="132.2" height="18.823" viewBox="0 0 132.2 18.823">
  <g id="lc" transform="translate(-62.925 -135.472)">
    <g id="g107" transform="translate(62.925 135.472)">
      <g id="g14" transform="translate(113.708 6.916)">
        <path id="path12" d="M250.259,89.345h-1.18a4.452,4.452,0,0,0-4.525,4.525v5.705a1.479,1.479,0,0,0,.984,1.377,1.309,1.309,0,0,0,1.771-1.377V93.87a1.763,1.763,0,0,1,1.771-1.771h1.18a1.377,1.377,0,1,0,0-2.754Z" transform="translate(-244.554 -89.345)" fill="#009dad"/>
      </g>
      <g id="g18" transform="translate(68.03 6.916)">
        <path id="path16" d="M218.033,89.345a5.8,5.8,0,0,0-5.705,6.492,5.939,5.939,0,0,0,5.9,5.115h2.557a1.3,1.3,0,0,0,1.377-1.18,1.394,1.394,0,0,0-1.377-1.574h-2.754a3.367,3.367,0,0,1-3.148-2.361,3.136,3.136,0,0,1,2.951-3.738h2.754a1.479,1.479,0,0,0,1.377-.984,1.309,1.309,0,0,0-1.377-1.771Z" transform="translate(-212.291 -89.345)" fill="#009dad"/>
      </g>
      <g id="g22" transform="translate(102.101 6.885)">
        <path id="path20" d="M236.356,90.732V95.65a5.456,5.456,0,0,0,4.328,5.312,5.238,5.238,0,0,0,6.1-5.115V90.732a1.3,1.3,0,0,0-1.18-1.377,1.394,1.394,0,0,0-1.574,1.377v5.115a2.337,2.337,0,0,1-1.967,2.361,2.362,2.362,0,0,1-2.951-2.361V90.732a1.378,1.378,0,1,0-2.754,0Z" transform="translate(-236.356 -89.324)" fill="#009dad"/>
      </g>
      <g id="g26" transform="translate(79.084 6.885)">
        <path id="path24" d="M220.1,90.732V95.65a5.456,5.456,0,0,0,4.328,5.312,5.238,5.238,0,0,0,6.1-5.115V90.732a1.3,1.3,0,0,0-1.18-1.377,1.394,1.394,0,0,0-1.574,1.377v5.115a2.337,2.337,0,0,1-1.967,2.361,2.362,2.362,0,0,1-2.951-2.361V90.732a1.479,1.479,0,0,0-.984-1.377A1.568,1.568,0,0,0,220.1,90.732Z" transform="translate(-220.098 -89.324)" fill="#009dad"/>
      </g>
      <path id="path28" d="M231.051,85.832a1.273,1.273,0,0,0-1.771-1.18,1.479,1.479,0,0,0-.984,1.377V99.8a3.278,3.278,0,0,0,3.148,3.344,1.52,1.52,0,0,0,1.574-1.377,1.345,1.345,0,0,0-1.377-1.377c-.393,0-.787-.2-.787-.59V85.832Z" transform="translate(-137.605 -84.425)" fill="#009dad"/>
      <path id="path30" d="M236.318,91.377a1.38,1.38,0,0,0,1.377-1.771,1.479,1.479,0,0,0-1.377-.984h-1.377V85.868a1.437,1.437,0,0,0-1.18-1.377,1.394,1.394,0,0,0-1.574,1.377V99.639a3.278,3.278,0,0,0,3.148,3.344,1.52,1.52,0,0,0,1.574-1.377,1.345,1.345,0,0,0-1.377-1.377c-.393,0-.787-.2-.787-.59V91.377Z" transform="translate(-135.988 -84.461)" fill="#009dad"/>
      <g id="g64" transform="translate(0 0)">
        <path id="path32" d="M179.88,89.345a1.479,1.479,0,0,0-1.377.984l-2.361,5.705-2.361-5.705a1.479,1.479,0,0,0-1.377-.984,1.355,1.355,0,0,0-1.18,1.967l3.541,8.853a1.079,1.079,0,0,0,1.18.787h0a1.328,1.328,0,0,0,1.18-.787l3.541-8.853c.787-.787.2-1.771-.787-1.967Z" transform="translate(-161.387 -82.429)" fill="#009dad"/>
        <g id="g38" transform="translate(5.871 2.754)">
          <path id="path34" d="M171.163,99.526a1.394,1.394,0,0,1-1.574,1.377,1.688,1.688,0,0,1-1.18-1.377V90.871a1.3,1.3,0,0,1,1.18-1.377,1.394,1.394,0,0,1,1.574,1.377Z" transform="translate(-168.378 -85.135)" fill="#009dad"/>
          <path id="path36" d="M171.172,87.617a1.3,1.3,0,0,1-1.574,1.574,1.774,1.774,0,0,1-1.18-1.18,1.3,1.3,0,0,1,1.574-1.574C170.582,86.633,171.172,87.027,171.172,87.617Z" transform="translate(-168.387 -86.406)" fill="#009dad"/>
        </g>
        <g id="g44" transform="translate(48.561 2.754)">
          <path id="path40" d="M201.315,99.526a1.394,1.394,0,0,1-1.574,1.377,1.688,1.688,0,0,1-1.18-1.377V90.871a1.3,1.3,0,0,1,1.18-1.377,1.394,1.394,0,0,1,1.574,1.377Z" transform="translate(-198.531 -85.135)" fill="#009dad"/>
          <path id="path42" d="M201.324,87.617a1.3,1.3,0,0,1-1.574,1.574,1.774,1.774,0,0,1-1.18-1.18,1.3,1.3,0,0,1,1.574-1.574Q201.324,86.732,201.324,87.617Z" transform="translate(-198.54 -86.406)" fill="#009dad"/>
        </g>
        <g id="g48" transform="translate(20.263 6.916)">
          <path id="path46" d="M184.257,89.345h-1.18a4.452,4.452,0,0,0-4.525,4.525v5.705a1.38,1.38,0,0,0,1.771,1.377,1.479,1.479,0,0,0,.984-1.377V93.87a1.763,1.763,0,0,1,1.771-1.771h1.18a1.38,1.38,0,0,0,1.377-1.771,1.479,1.479,0,0,0-1.377-.984Z" transform="translate(-178.552 -89.345)" fill="#009dad"/>
        </g>
        <g id="g52" transform="translate(40.526 6.916)">
          <path id="path50" d="M198.569,89.345h-1.18a4.452,4.452,0,0,0-4.525,4.525v5.705a1.3,1.3,0,0,0,1.18,1.377,1.394,1.394,0,0,0,1.574-1.377V93.87a1.763,1.763,0,0,1,1.771-1.771h1.18a1.394,1.394,0,0,0,1.377-1.574A1.688,1.688,0,0,0,198.569,89.345Z" transform="translate(-192.864 -89.345)" fill="#009dad"/>
        </g>
        <g id="g56" transform="translate(27.148 7.033)">
          <path id="path54" d="M183.415,95.213a6.015,6.015,0,0,0,5.705,5.9c.59,0,1.377-.393,1.377-.984a1.38,1.38,0,0,0-1.377-1.771,2.669,2.669,0,0,1-2.557-1.377,3.066,3.066,0,0,1,2.951-4.721,3.18,3.18,0,0,1,2.754,3.148v3.935c0,.984.393,1.574.984,1.771a1.309,1.309,0,0,0,1.771-1.377V95.41a5.939,5.939,0,0,0-5.115-5.9,5.6,5.6,0,0,0-6.492,5.705Z" transform="translate(-183.415 -89.428)" fill="#009dad"/>
        </g>
        <path id="path58" d="M166.994,85.868a1.394,1.394,0,0,0-1.574-1.377,1.688,1.688,0,0,0-1.18,1.377V99.639a3.278,3.278,0,0,0,3.148,3.344,1.52,1.52,0,0,0,1.574-1.377,1.345,1.345,0,0,0-1.377-1.377c-.393,0-.787-.2-.787-.59V85.868Z" transform="translate(-164.24 -84.461)" fill="#009dad"/>
        <g id="g62" transform="translate(52.723 7.033)">
          <path id="path60" d="M201.479,95.213a6.015,6.015,0,0,0,5.705,5.9c.59,0,1.377-.393,1.377-.984a1.38,1.38,0,0,0-1.377-1.771,2.669,2.669,0,0,1-2.557-1.377,3.108,3.108,0,1,1,5.705-1.574v4.328a1.3,1.3,0,0,0,1.18,1.377,1.394,1.394,0,0,0,1.574-1.377V95.41a5.939,5.939,0,0,0-5.115-5.9,5.6,5.6,0,0,0-6.492,5.705Z" transform="translate(-201.479 -89.428)" fill="#009dad"/>
        </g>
      </g>
      <g id="g68" transform="translate(120.593 7.033)">
        <path id="path66" d="M249.417,95.213a6.015,6.015,0,0,0,5.705,5.9c.59,0,1.377-.393,1.377-.984a1.38,1.38,0,0,0-1.377-1.771,2.669,2.669,0,0,1-2.557-1.377,3.108,3.108,0,1,1,5.705-1.574v3.935c0,.984.393,1.574.984,1.771a1.309,1.309,0,0,0,1.771-1.377V95.41a5.939,5.939,0,0,0-5.115-5.9,5.683,5.683,0,0,0-6.492,5.705Z" transform="translate(-249.417 -89.428)" fill="#009dad"/>
      </g>
    </g>
  </g>
</svg>
