<svg id="linkedin" xmlns="http://www.w3.org/2000/svg" width="24" height="22.94" viewBox="0 0 24 22.94">
  <path id="Caminho_6" data-name="Caminho 6" d="M2.8-.668A2.584,2.584,0,1,0,2.74,4.486h.032A2.585,2.585,0,1,0,2.8-.668Zm0,0" transform="translate(0 0.668)"/>
  <path id="Caminho_7" data-name="Caminho 7" d="M8.109,198.313h4.958V213.23H8.109Zm0,0" transform="translate(-7.816 -190.29)"/>
  <path id="Caminho_8" data-name="Caminho 8" d="M230.642,188.625c-2.675,0-4.468,2.513-4.468,2.513v-2.163h-4.958v14.917h4.958v-8.33a3.4,3.4,0,0,1,.163-1.21,2.714,2.714,0,0,1,2.544-1.813c1.794,0,2.512,1.368,2.512,3.373v7.98h4.958v-8.553c0-4.582-2.446-6.714-5.708-6.714Zm0,0" transform="translate(-212.35 -180.952)"/>
</svg>
