<svg xmlns="http://www.w3.org/2000/svg" width="76.735" height="76.42" viewBox="0 0 76.735 76.42">
  <g id="oi" transform="translate(133.165 -164.816)">
    <g id="g3074" transform="translate(-133.165 164.816)">
      <g id="layer1-0" transform="translate(0)">
        <g id="g3006" transform="translate(0 0)">
          <g id="Camada_x0020_1">
            <path id="path2993" d="M378.626,488.7c-4.313.157-5.5,21.489,0,22.827C384.367,510.932,383.773,488.215,378.626,488.7Z" transform="translate(-333.535 -451.843)" fill="none" fill-rule="evenodd"/>
            <ellipse id="ellipse2995" cx="3.761" cy="3.827" rx="3.761" ry="3.827" transform="translate(41.429 26.4)" fill="none"/>
            <path id="path2997" d="M276.908,439.645c.989,23.479,24.129,32.645,24.129,32.645,9.841,4.5,16.558,4.94,22.8,5.49,10.51.617,14.179-3.533,11.4-13.7-.367-2.041-.624-4.1-.624-4.1-1.3-4.386-.661-11.244-.661-11.244,0-5.806,10.292-12.007,10.292-12.007,15.834-12.667,6.829-24.84,6.829-24.84-12.144-16.033-45.407-12.006-61.1,1.039a44.512,44.512,0,0,0-6.538,6.751c-4.26,5.094-6.79,13.748-6.528,19.969Zm26.961,6.318c13.458-.155,15.525,22.364.264,22.827C288.7,467.626,291.642,446.163,303.869,445.963Zm17.549,22.959c-5.5-1.338-4.313-22.67,0-22.827C326.565,445.609,327.159,468.327,321.418,468.922Zm.1-33.284a3.827,3.827,0,1,1-3.761,3.826A3.794,3.794,0,0,1,321.517,435.638Z" transform="translate(-276.889 -401.42)" fill="#fc3" fill-rule="evenodd"/>
            <path id="path2999" d="M334.8,520.472c-5.41.226-6,11.992.2,12.008C341.117,532.572,341.315,520.147,334.8,520.472Z" transform="translate(-307.891 -470.2)" fill="#fc3" stroke="#fc3" stroke-width="0.709" fill-rule="evenodd"/>
          </g>
        </g>
      </g>
      <path id="path3068" d="M-83.782,293.085a10.6,10.6,0,0,1-9.083-7.7,18,18,0,0,1,0-6.29,11.743,11.743,0,0,1,3.2-5.684,8.969,8.969,0,0,1,5.052-2.721c6.825-1.233,12.69,4.55,12.319,12.147a10.384,10.384,0,0,1-1.18,4.787,10.033,10.033,0,0,1-7.853,5.4c-.521.051-1.084.112-1.25.137a6.581,6.581,0,0,1-1.206-.081Zm2.745-5.14a5.88,5.88,0,0,0,2.774-4.038,11.05,11.05,0,0,0-.309-4.689,4.463,4.463,0,0,0-4.268-3.211,3.027,3.027,0,0,0-1.9.434c-1.419.776-2.272,2.146-2.681,4.3-.69,3.645.894,6.982,3.57,7.524a4.927,4.927,0,0,0,2.814-.324Z" transform="translate(110.041 -225.892)" fill="#fff"/>
      <path id="path3070" d="M-33.566,292.879c-1.594-1.44-2.387-4.386-2.512-9.328-.207-8.193,1.934-14.056,4.544-12.443,1.736,1.073,2.946,5.54,2.953,10.9.008,5.685-1.177,9.986-3.068,11.14a1.37,1.37,0,0,1-1.917-.267Z" transform="translate(77.079 -226.073)" fill="#fff"/>
      <path id="path3072" d="M-33.959,253.245a4.56,4.56,0,0,1-2-2.251,3.709,3.709,0,0,1,.177-2.669,3.542,3.542,0,0,1,4.933-1.771,3.76,3.76,0,0,1,1.577,5.158,4.607,4.607,0,0,1-1.835,1.609,4.45,4.45,0,0,1-2.849-.076h0Z" transform="translate(77.101 -211.802)" fill="#fff"/>
    </g>
  </g>
</svg>
