<svg xmlns="http://www.w3.org/2000/svg" xmlns:xlink="http://www.w3.org/1999/xlink" width="65" height="89.022" viewBox="0 0 65 89.022">
  <defs>
    <linearGradient id="linear-gradient" x1="0.5" x2="0.5" y2="0.626" gradientUnits="objectBoundingBox">
      <stop offset="0" stop-color="#d378e5"/>
      <stop offset="1" stop-color="#7526c2"/>
    </linearGradient>
  </defs>
  <path id="principal" d="M0,75.253V32.5A32.5,32.5,0,1,1,33.207,64.992V65a9.185,9.185,0,0,1-.141-18.368v-.012A14.131,14.131,0,1,0,18.37,32.5V79.837A9.186,9.186,0,0,1,3.906,87.354,6.36,6.36,0,1,0,0,75.253ZM33.207,62.174a6.359,6.359,0,1,0-6.359-6.359A6.359,6.359,0,0,0,33.207,62.174Z" fill-rule="evenodd" fill="url(#linear-gradient)"/>
</svg>
