<svg xmlns="http://www.w3.org/2000/svg" width="111.695" height="28.1" viewBox="0 0 111.695 28.1">
  <path id="rebel" d="M87.9,24.242a9.307,9.307,0,0,1-2.881-6.854,9.364,9.364,0,0,1,2.845-6.853,9.277,9.277,0,0,1,6.817-2.856,8.927,8.927,0,0,1,6.613,2.669,9.1,9.1,0,0,1,2.641,6.668l-.185,2.084H90.318a4.28,4.28,0,0,0,1.607,2.576,5.122,5.122,0,0,0,3.307,1.05,6.291,6.291,0,0,0,2.67-.567,5.173,5.173,0,0,0,1.727-1.144l.536-.577,2.641,3.423-.341.344a10.18,10.18,0,0,1-.988.788,11.867,11.867,0,0,1-1.608,1,10.3,10.3,0,0,1-2.207.772,11.654,11.654,0,0,1-2.8.334A9.534,9.534,0,0,1,87.9,24.242Zm4.019-11.226a5.04,5.04,0,0,0-1.6,2.474h8.516a4.253,4.253,0,0,0-1.413-2.455,4.043,4.043,0,0,0-2.744-.967,4.168,4.168,0,0,0-2.763.947ZM46.269,24.242a9.308,9.308,0,0,1-2.882-6.854,9.364,9.364,0,0,1,2.845-6.853,9.282,9.282,0,0,1,6.817-2.856,8.927,8.927,0,0,1,6.614,2.669A9.1,9.1,0,0,1,62.3,17.016L62.12,19.1H48.689A4.276,4.276,0,0,0,50.3,21.675a5.121,5.121,0,0,0,3.307,1.05,6.29,6.29,0,0,0,2.669-.567A5.177,5.177,0,0,0,58,21.015l.536-.577,2.639,3.422-.342.344a10.052,10.052,0,0,1-.988.788,11.91,11.91,0,0,1-1.6,1,10.3,10.3,0,0,1-2.207.772,11.654,11.654,0,0,1-2.8.334,9.534,9.534,0,0,1-6.963-2.857Zm4.018-11.226a5.044,5.044,0,0,0-1.6,2.474h8.516a4.245,4.245,0,0,0-1.413-2.455,4.042,4.042,0,0,0-2.744-.967,4.168,4.168,0,0,0-2.762.947ZM71.537,26.385a6.157,6.157,0,0,1-1.958-1.313l-.554-.688v2.288H63.907V0h5.117V10.286a2.789,2.789,0,0,1,.221-.279q.149-.167.656-.623A7.626,7.626,0,0,1,71,8.565a7.237,7.237,0,0,1,3.51-.939,8.283,8.283,0,0,1,6.243,2.819A9.7,9.7,0,0,1,83.4,17.336a9.682,9.682,0,0,1-2.652,6.89,8.294,8.294,0,0,1-6.235,2.818,6.826,6.826,0,0,1-2.974-.661ZM70.344,13.643a5.251,5.251,0,0,0-1.32,3.692,5.288,5.288,0,0,0,1.32,3.7,4.288,4.288,0,0,0,6.429,0,5.288,5.288,0,0,0,1.321-3.7,5.251,5.251,0,0,0-1.321-3.692,4.3,4.3,0,0,0-6.429,0Zm35.234,13.081V.052H110.7V26.724Zm-67.063,0-5.1-9.337H28.5v9.337H22.814V.052H34.541A8.9,8.9,0,0,1,41.053,2.59,8.4,8.4,0,0,1,43.63,8.811a8.839,8.839,0,0,1-.5,2.995,7.958,7.958,0,0,1-1.173,2.25,10.969,10.969,0,0,1-1.377,1.469,5.177,5.177,0,0,1-1.2.84l-.48.263,5.672,10.1ZM28.5,12.252h5.856a3.554,3.554,0,0,0,2.574-.994,3.277,3.277,0,0,0,1.025-2.446,3.5,3.5,0,0,0-3.6-3.608H28.5ZM1.7,25.2l1.515-3.813H0V17.015H4.914l1.33-3.05H0V9.575H7.944L9.458,5.781h4.526l-1.5,3.794H15.7v4.39H10.77l-1.313,3.05H15.7v4.371H7.758L6.243,25.2Z" transform="translate(0.5 0.5)" fill="#010101" stroke="rgba(0,0,0,0)" stroke-width="1"/>
</svg>
