<svg xmlns="http://www.w3.org/2000/svg" width="92" height="36.8" viewBox="0 0 92 36.8">
  <path id="sky" d="M30.237,11.668c-4.493-2.617-7.488-3.215-10.7-3.215-1.782,0-3.779.448-4.065,2.243-.214,1.57,1.213,1.944,4.208,2.619,5.491,1.2,11.054,2.767,11.766,8.675l3-15.482Zm41.367.449,8.2-11.07H92L74.741,22.364,72.174,35.677H61.762l2.923-14.883-5.348-9.649-6.989,8,9.414,16.529H49.21L41.862,21.915l-2.5,13.762H28.811l1.5-7.928c-2.853,6.806-8.2,9.051-15.474,9.051C8.7,36.8,3.066,34.854,0,31.338l5.776-7.105a14.576,14.576,0,0,0,10.412,3.89c2.852,0,4.564-1.121,4.635-2.618.071-2.542-4.136-2.917-7.987-4.037C8.486,20.195,3.85,17.129,5.063,10.7,5.99,5.759,10.2,0,20.894,0c5.991,0,10.412,1.42,14.05,4.114l.569-3.066H46.071L43,16.081,55.415,1.047H65.9Z" fill="#e30609" fill-rule="evenodd"/>
</svg>
