<svg xmlns="http://www.w3.org/2000/svg" xmlns:xlink="http://www.w3.org/1999/xlink" width="299.237" height="299.228" viewBox="0 0 299.237 299.228">
  <defs>
    <clipPath id="clip-path">
      <rect id="Retângulo_9" data-name="Retângulo 9" width="299.237" height="299.228" fill="none"/>
    </clipPath>
  </defs>
  <g id="stay-in-home" transform="translate(-847.763 -215.764)">
    <g id="Elipse_2" data-name="Elipse 2" transform="translate(875 243.792)" fill="rgba(255,255,255,0)" stroke="#171717" stroke-linejoin="bevel" stroke-width="253" stroke-dasharray="10">
      <circle cx="122" cy="122" r="122" stroke="none"/>
      <circle cx="122" cy="122" r="4.5" fill="none"/>
    </g>
    <g id="Grupo_23" data-name="Grupo 23" transform="translate(847.763 215.764)">
      <text id="S" transform="translate(69.641 254.603) rotate(-139.891)" fill="#161615" font-size="22" font-family="Larsseit-Bold, Larsseit" font-weight="700"><tspan x="0" y="0">S</tspan></text>
      <text id="E" transform="matrix(-0.702, -0.712, 0.712, -0.702, 59.959, 246.438)" fill="#161615" font-size="22" font-family="Larsseit-Bold, Larsseit" font-weight="700"><tspan x="0" y="0">E</tspan></text>
      <text id="_" data-name=" " transform="matrix(-0.656, -0.755, 0.755, -0.656, 52.367, 237.146)" fill="#161615" font-size="23" font-family="Larsseit-Bold, Larsseit" font-weight="700"><tspan x="0" y="0"> </tspan></text>
      <text id="D" transform="translate(48.497 234.615) rotate(-126.384)" fill="#161615" font-size="22" font-family="Larsseit-Bold, Larsseit" font-weight="700"><tspan x="0" y="0">D</tspan></text>
      <text id="E-2" data-name="E" transform="matrix(-0.502, -0.865, 0.865, -0.502, 38.575, 220.938)" fill="#161615" font-size="22" font-family="Larsseit-Bold, Larsseit" font-weight="700"><tspan x="0" y="0">E</tspan></text>
      <text id="R" transform="translate(32.529 210.605) rotate(-114.613)" fill="#161615" font-size="21" font-family="Larsseit-Bold, Larsseit" font-weight="700"><tspan x="0" y="0">R</tspan></text>
      <text id="_2" data-name="," transform="translate(28.018 198.023) rotate(-110.596)" fill="#161615" font-size="23" font-family="Larsseit-Bold, Larsseit" font-weight="700"><tspan x="0" y="0">,</tspan></text>
      <text id="_3" data-name=" " transform="translate(26.253 193.318) rotate(-108.497)" fill="#161615" font-size="23" font-family="Larsseit-Bold, Larsseit" font-weight="700"><tspan x="0" y="0"> </tspan></text>
      <g id="Grupo_16" data-name="Grupo 16">
        <g id="Grupo_15" data-name="Grupo 15" clip-path="url(#clip-path)">
          <text id="F" transform="translate(24.732 189.119) rotate(-105.009)" fill="#161615" font-size="23" font-family="Larsseit-Bold, Larsseit" font-weight="700"><tspan x="0" y="0">F</tspan></text>
          <text id="I" transform="translate(21.889 178.218) rotate(-101.139)" fill="#161615" font-size="23" font-family="Larsseit-Bold, Larsseit" font-weight="700"><tspan x="0" y="0">I</tspan></text>
          <text id="Q" transform="translate(20.39 172.114) rotate(-95.765)" fill="#161615" font-size="23" font-family="Larsseit-Bold, Larsseit" font-weight="700"><tspan x="0" y="0">Q</tspan></text>
          <text id="U" transform="translate(17.623 154.025) rotate(-88.435)" fill="#161615" font-size="22" font-family="Larsseit-Bold, Larsseit" font-weight="700"><tspan x="0" y="0">U</tspan></text>
          <text id="E-3" data-name="E" transform="translate(18.156 138.025) rotate(-82.406)" fill="#161615" font-size="22" font-family="Larsseit-Bold, Larsseit" font-weight="700"><tspan x="0" y="0">E</tspan></text>
          <text id="_4" data-name=" " transform="matrix(0.194, -0.981, 0.981, 0.194, 20.834, 126.345)" fill="#161615" font-size="23" font-family="Larsseit-Bold, Larsseit" font-weight="700"><tspan x="0" y="0"> </tspan></text>
          <text id="E-4" data-name="E" transform="matrix(0.255, -0.967, 0.967, 0.255, 20.603, 121.728)" fill="#161615" font-size="22" font-family="Larsseit-Bold, Larsseit" font-weight="700"><tspan x="0" y="0">E</tspan></text>
        </g>
      </g>
      <text id="M" transform="matrix(0.373, -0.928, 0.928, 0.373, 24.308, 110.484)" fill="#161615" font-size="23" font-family="Larsseit-Bold, Larsseit" font-weight="700"><tspan x="0" y="0">M</tspan></text>
      <text id="_5" data-name=" " transform="translate(32.299 91.602) rotate(-62.639)" fill="#161615" font-size="23" font-family="Larsseit-Bold, Larsseit" font-weight="700"><tspan x="0" y="0"> </tspan></text>
      <text id="C" transform="translate(33.229 87.057) rotate(-57.961)" fill="#161615" font-size="22" font-family="Larsseit-Bold, Larsseit" font-weight="700"><tspan x="0" y="0">C</tspan></text>
      <text id="A" transform="translate(42.006 72.981) rotate(-50.852)" fill="#161615" font-size="22" font-family="Larsseit-Bold, Larsseit" font-weight="700"><tspan x="0" y="0">A</tspan></text>
      <text id="S-2" data-name="S" transform="translate(52.627 60.098) rotate(-44.519)" fill="#161615" font-size="22" font-family="Larsseit-Bold, Larsseit" font-weight="700"><tspan x="0" y="0">S</tspan></text>
      <text id="A-2" data-name="A" transform="translate(61.561 51.141) rotate(-38.184)" fill="#161615" font-size="22" font-family="Larsseit-Bold, Larsseit" font-weight="700"><tspan x="0" y="0">A</tspan></text>
      <text id="_6" data-name=" " transform="matrix(0.833, -0.554, 0.554, 0.833, 75.378, 41.844)" fill="#161615" font-size="23" font-family="Larsseit-Bold, Larsseit" font-weight="700"><tspan x="0" y="0"> </tspan></text>
      <text id="_7" data-name="•" transform="translate(78.558 38.473) rotate(-30.852)" fill="#d80071" font-size="21" font-family="Larsseit-Bold, Larsseit" font-weight="700"><tspan x="0" y="0">•</tspan></text>
      <text id="_8" data-name=" " transform="translate(86.105 35.18) rotate(-28.078)" fill="#161615" font-size="23" font-family="Larsseit-Bold, Larsseit" font-weight="700"><tspan x="0" y="0"> </tspan></text>
      <text id="V" transform="translate(89.863 32.904) rotate(-23.574)" fill="#161615" font-size="23" font-family="Larsseit-Bold, Larsseit" font-weight="700"><tspan x="0" y="0">V</tspan></text>
      <text id="A-3" data-name="A" transform="matrix(0.954, -0.301, 0.301, 0.954, 101.845, 26.409)" fill="#161615" font-size="22" font-family="Larsseit-Bold, Larsseit" font-weight="700"><tspan x="0" y="0">A</tspan></text>
      <g id="Grupo_18" data-name="Grupo 18">
        <g id="Grupo_17" data-name="Grupo 17" clip-path="url(#clip-path)">
          <text id="I-2" data-name="I" transform="matrix(0.976, -0.216, 0.216, 0.976, 118.088, 22.56)" fill="#161615" font-size="23" font-family="Larsseit-Bold, Larsseit" font-weight="700"><tspan x="0" y="0">I</tspan></text>
          <text id="_9" data-name=" " transform="translate(124.329 21.199) rotate(-10.072)" fill="#161615" font-size="23" font-family="Larsseit-Bold, Larsseit" font-weight="700"><tspan x="0" y="0"> </tspan></text>
          <text id="D-2" data-name="D" transform="translate(128.514 19.176) rotate(-5.415)" fill="#161615" font-size="22" font-family="Larsseit-Bold, Larsseit" font-weight="700"><tspan x="0" y="0">D</tspan></text>
          <text id="E-5" data-name="E" transform="translate(145.331 17.689) rotate(0.929)" fill="#161615" font-size="22" font-family="Larsseit-Bold, Larsseit" font-weight="700"><tspan x="0" y="0">E</tspan></text>
          <text id="_10" data-name=" " transform="translate(157.293 18.976) rotate(4.306)" fill="#161615" font-size="23" font-family="Larsseit-Bold, Larsseit" font-weight="700"><tspan x="0" y="0"> </tspan></text>
          <text id="B" transform="translate(161.688 19.139) rotate(8.259)" fill="#161615" font-size="23" font-family="Larsseit-Bold, Larsseit" font-weight="700"><tspan x="0" y="0">B</tspan></text>
          <text id="I-3" data-name="I" transform="translate(175.251 21.242) rotate(12.662)" fill="#161615" font-size="23" font-family="Larsseit-Bold, Larsseit" font-weight="700"><tspan x="0" y="0">I</tspan></text>
        </g>
      </g>
      <text id="K" transform="translate(181.707 21.456) rotate(17.499)" fill="#161615" font-size="22" font-family="Larsseit-Bold, Larsseit" font-weight="700"><tspan x="0" y="0">K</tspan></text>
      <text id="E-6" data-name="E" transform="translate(196.723 26.289) rotate(23.563)" fill="#161615" font-size="22" font-family="Larsseit-Bold, Larsseit" font-weight="700"><tspan x="0" y="0">E</tspan></text>
      <text id="_11" data-name=" " transform="translate(207.229 32.084) rotate(27.165)" fill="#161615" font-size="23" font-family="Larsseit-Bold, Larsseit" font-weight="700"><tspan x="0" y="0"> </tspan></text>
      <text id="_12" data-name="•" transform="translate(211.698 33.2) rotate(29.921)" fill="#161615" font-size="21" font-family="Larsseit-Bold, Larsseit" font-weight="700"><tspan x="0" y="0">•</tspan></text>
      <text id="_13" data-name=" " transform="translate(218.249 38.173) rotate(32.686)" fill="#161615" font-size="23" font-family="Larsseit-Bold, Larsseit" font-weight="700"><tspan x="0" y="0"> </tspan></text>
      <text id="S-3" data-name="S" transform="translate(222.63 39.632) rotate(36.405)" fill="#161615" font-size="22" font-family="Larsseit-Bold, Larsseit" font-weight="700"><tspan x="0" y="0">S</tspan></text>
      <text id="E-7" data-name="E" transform="translate(232.827 47.164) rotate(41.734)" fill="#161615" font-size="22" font-family="Larsseit-Bold, Larsseit" font-weight="700"><tspan x="0" y="0">E</tspan></text>
      <text id="_14" data-name=" " transform="matrix(0.704, 0.711, -0.711, 0.704, 240.985, 55.929)" fill="#161615" font-size="23" font-family="Larsseit-Bold, Larsseit" font-weight="700"><tspan x="0" y="0"> </tspan></text>
      <text id="D-3" data-name="D" transform="matrix(0.644, 0.765, -0.765, 0.644, 245.02, 58.216)" fill="#161615" font-size="22" font-family="Larsseit-Bold, Larsseit" font-weight="700"><tspan x="0" y="0">D</tspan></text>
      <text id="E-8" data-name="E" transform="matrix(0.557, 0.831, -0.831, 0.557, 255.815, 71.236)" fill="#161615" font-size="22" font-family="Larsseit-Bold, Larsseit" font-weight="700"><tspan x="0" y="0">E</tspan></text>
      <text id="R-2" data-name="R" transform="translate(262.507 81.138) rotate(61.651)" fill="#161615" font-size="21" font-family="Larsseit-Bold, Larsseit" font-weight="700"><tspan x="0" y="0">R</tspan></text>
      <text id="_15" data-name="," transform="translate(267.839 93.426) rotate(65.671)" fill="#161615" font-size="23" font-family="Larsseit-Bold, Larsseit" font-weight="700"><tspan x="0" y="0">,</tspan></text>
      <text id="_16" data-name=" " transform="translate(269.907 98.001) rotate(67.764)" fill="#161615" font-size="23" font-family="Larsseit-Bold, Larsseit" font-weight="700"><tspan x="0" y="0"> </tspan></text>
      <text id="F-2" data-name="F" transform="translate(271.685 102.065) rotate(71.238)" fill="#161615" font-size="23" font-family="Larsseit-Bold, Larsseit" font-weight="700"><tspan x="0" y="0">F</tspan></text>
      <g id="Grupo_20" data-name="Grupo 20">
        <g id="Grupo_19" data-name="Grupo 19" clip-path="url(#clip-path)">
          <text id="I-4" data-name="I" transform="matrix(0.257, 0.966, -0.966, 0.257, 275.245, 112.785)" fill="#161615" font-size="23" font-family="Larsseit-Bold, Larsseit" font-weight="700"><tspan x="0" y="0">I</tspan></text>
          <text id="Q-2" data-name="Q" transform="translate(277.135 118.757) rotate(80.512)" fill="#161615" font-size="23" font-family="Larsseit-Bold, Larsseit" font-weight="700"><tspan x="0" y="0">Q</tspan></text>
          <text id="U-2" data-name="U" transform="translate(281.073 136.641) rotate(87.914)" fill="#161615" font-size="22" font-family="Larsseit-Bold, Larsseit" font-weight="700"><tspan x="0" y="0">U</tspan></text>
          <text id="E-9" data-name="E" transform="translate(281.561 152.631) rotate(93.887)" fill="#161615" font-size="22" font-family="Larsseit-Bold, Larsseit" font-weight="700"><tspan x="0" y="0">E</tspan></text>
          <text id="_17" data-name=" " transform="matrix(-0.13, 0.992, -0.992, -0.13, 279.642, 164.448)" fill="#161615" font-size="23" font-family="Larsseit-Bold, Larsseit" font-weight="700"><tspan x="0" y="0"> </tspan></text>
          <text id="E-10" data-name="E" transform="translate(280.17 169.071) rotate(101.049)" fill="#161615" font-size="22" font-family="Larsseit-Bold, Larsseit" font-weight="700"><tspan x="0" y="0">E</tspan></text>
          <text id="M-2" data-name="M" transform="translate(277.213 180.507) rotate(108.142)" fill="#161615" font-size="23" font-family="Larsseit-Bold, Larsseit" font-weight="700"><tspan x="0" y="0">M</tspan></text>
        </g>
      </g>
      <text id="_18" data-name=" " transform="translate(270.476 199.867) rotate(113.617)" fill="#161615" font-size="23" font-family="Larsseit-Bold, Larsseit" font-weight="700"><tspan x="0" y="0"> </tspan></text>
      <text id="C-2" data-name="C" transform="translate(269.846 204.456) rotate(118.306)" fill="#161615" font-size="22" font-family="Larsseit-Bold, Larsseit" font-weight="700"><tspan x="0" y="0">C</tspan></text>
      <text id="A-4" data-name="A" transform="matrix(-0.58, 0.815, -0.815, -0.58, 261.998, 219.088)" fill="#161615" font-size="22" font-family="Larsseit-Bold, Larsseit" font-weight="700"><tspan x="0" y="0">A</tspan></text>
      <text id="S-4" data-name="S" transform="translate(252.237 232.625) rotate(131.777)" fill="#161615" font-size="22" font-family="Larsseit-Bold, Larsseit" font-weight="700"><tspan x="0" y="0">S</tspan></text>
      <text id="A-5" data-name="A" transform="translate(243.905 242.136) rotate(138.106)" fill="#161615" font-size="22" font-family="Larsseit-Bold, Larsseit" font-weight="700"><tspan x="0" y="0">A</tspan></text>
      <text id="_19" data-name=" " transform="matrix(-0.795, 0.606, -0.606, -0.795, 230.69, 252.326)" fill="#161615" font-size="23" font-family="Larsseit-Bold, Larsseit" font-weight="700"><tspan x="0" y="0"> </tspan></text>
      <text id="_20" data-name="•" transform="translate(227.727 255.901) rotate(145.441)" fill="#d80071" font-size="21" font-family="Larsseit-Bold, Larsseit" font-weight="700"><tspan x="0" y="0">•</tspan></text>
      <text id="_21" data-name=" " transform="translate(220.427 259.667) rotate(148.198)" fill="#161615" font-size="23" font-family="Larsseit-Bold, Larsseit" font-weight="700"><tspan x="0" y="0"> </tspan></text>
      <text id="V-2" data-name="V" transform="translate(216.84 262.173) rotate(152.682)" fill="#161615" font-size="23" font-family="Larsseit-Bold, Larsseit" font-weight="700"><tspan x="0" y="0">V</tspan></text>
      <text id="A-6" data-name="A" transform="translate(205.265 269.453) rotate(158.744)" fill="#161615" font-size="22" font-family="Larsseit-Bold, Larsseit" font-weight="700"><tspan x="0" y="0">A</tspan></text>
      <text id="I-5" data-name="I" transform="translate(189.344 274.342) rotate(163.789)" fill="#161615" font-size="23" font-family="Larsseit-Bold, Larsseit" font-weight="700"><tspan x="0" y="0">I</tspan></text>
      <g id="Grupo_22" data-name="Grupo 22">
        <g id="Grupo_21" data-name="Grupo 21" clip-path="url(#clip-path)">
          <text id="_22" data-name=" " transform="matrix(-0.971, 0.239, -0.239, -0.971, 183.203, 276.108)" fill="#161615" font-size="23" font-family="Larsseit-Bold, Larsseit" font-weight="700"><tspan x="0" y="0"> </tspan></text>
          <text id="D-4" data-name="D" transform="translate(179.166 278.401) rotate(170.862)" fill="#161615" font-size="22" font-family="Larsseit-Bold, Larsseit" font-weight="700"><tspan x="0" y="0">D</tspan></text>
          <text id="E-11" data-name="E" transform="translate(162.456 280.959) rotate(177.099)" fill="#161615" font-size="22" font-family="Larsseit-Bold, Larsseit" font-weight="700"><tspan x="0" y="0">E</tspan></text>
          <text id="_23" data-name=" " transform="translate(150.491 280.468) rotate(-179.071)" fill="#161615" font-size="23" font-family="Larsseit-Bold, Larsseit" font-weight="700"><tspan x="0" y="0"> </tspan></text>
          <text id="B-2" data-name="B" transform="translate(146.037 280.572) rotate(-175.445)" fill="#161615" font-size="23" font-family="Larsseit-Bold, Larsseit" font-weight="700"><tspan x="0" y="0">B</tspan></text>
          <text id="I-6" data-name="I" transform="translate(132.411 279.356) rotate(-171.088)" fill="#161615" font-size="23" font-family="Larsseit-Bold, Larsseit" font-weight="700"><tspan x="0" y="0">I</tspan></text>
          <text id="K-2" data-name="K" transform="translate(125.906 279.556) rotate(-166.242)" fill="#161615" font-size="22" font-family="Larsseit-Bold, Larsseit" font-weight="700"><tspan x="0" y="0">K</tspan></text>
        </g>
      </g>
      <text id="E-12" data-name="E" transform="translate(110.611 275.716) rotate(-160.176)" fill="#161615" font-size="22" font-family="Larsseit-Bold, Larsseit" font-weight="700"><tspan x="0" y="0">E</tspan></text>
      <text id="_24" data-name=" " transform="translate(99.779 270.631) rotate(-156.579)" fill="#161615" font-size="23" font-family="Larsseit-Bold, Larsseit" font-weight="700"><tspan x="0" y="0"> </tspan></text>
      <text id="_25" data-name=" " transform="translate(95.651 268.844) rotate(-154.6)" fill="#161615" font-size="23" font-family="Larsseit-Bold, Larsseit" font-weight="700"><tspan x="0" y="0"> </tspan></text>
      <text id="_26" data-name=" " transform="matrix(-0.888, -0.46, 0.46, -0.888, 91.575, 266.911)" fill="#161615" font-size="23" font-family="Larsseit-Bold, Larsseit" font-weight="700"><tspan x="0" y="0"> </tspan></text>
      <text id="_27" data-name="•" transform="matrix(-0.865, -0.502, 0.502, -0.865, 87.112, 265.776)" fill="#d80071" font-size="21" font-family="Larsseit-Bold, Larsseit" font-weight="700"><tspan x="0" y="0">•</tspan></text>
      <text id="_28" data-name=" " transform="translate(80.582 260.783) rotate(-147.098)" fill="#161615" font-size="23" font-family="Larsseit-Bold, Larsseit" font-weight="700"><tspan x="0" y="0"> </tspan></text>
    </g>
  </g>
</svg>
