<svg id="tim" xmlns="http://www.w3.org/2000/svg" width="109.7" height="29.051" viewBox="0 0 109.7 29.051">
  <path id="Caminho_20" data-name="Caminho 20" d="M577.62,0H575.69c-2.478,0-2.635.273-2.826.7L569.027,9.91c-1.276,3.058-2.594,6.347-3.1,8.054a70.536,70.536,0,0,0-3.1-8.212L558.993.7c-.232-.547-1.2-.7-3.29-.7h-2.171c-2.13,0-2.56.191-2.56.621v27.8c0,.505.431.621,2.635.621h1.2c2.171,0,2.792-.116,2.792-.621V11.932h.157a10.08,10.08,0,0,0,.505,1.475l4.417,10.341c.191.464.431.655,2.478.655h1.318c2.088,0,2.246-.157,2.436-.655l4.027-9.952a18.544,18.544,0,0,0,.655-1.864h.157v16.5c0,.505.423.621,2.71.621h1.16c2.13,0,2.751-.116,2.751-.621V.621c0-.431-.621-.621-2.751-.621M545.478.621c0-.431-.613-.621-2.743-.621h-1.243c-2.246,0-2.635.191-2.635.621v27.8c0,.505.389.621,2.635.621h1.243c2.13,0,2.751-.116,2.751-.621ZM533.671,0c.58,0,.7.075.7,2.13v1.9c0,1.972-.157,2.2-.7,2.2h-6.579v22.19c0,.505-.621.621-2.826.621h-1.16c-2.246,0-2.635-.116-2.635-.621V6.231h-6.579c-.539,0-.7-.157-.7-2.2V2.13C513.187,0,513.3,0,513.883,0Z" transform="translate(-470.671 0)" fill="#063b88"/>
  <path id="Caminho_21" data-name="Caminho 21" d="M13.9,22.92H1.674A1.669,1.669,0,0,0,0,24.594v2.867a1.625,1.625,0,0,0,.489,1.177,1.644,1.644,0,0,0,1.185.489H13.9Zm20.367.5a1.651,1.651,0,0,0-1.185-.5H20.856v6.206h12.23a1.669,1.669,0,0,0,1.666-1.674V24.586a1.647,1.647,0,0,0-.481-1.168m0-11.41a1.651,1.651,0,0,0-1.185-.5H20.856v6.206h12.23a1.669,1.669,0,0,0,1.666-1.674V13.167a1.642,1.642,0,0,0-.481-1.16M13.9,11.51H1.674A1.669,1.669,0,0,0,0,13.176v2.875a1.683,1.683,0,0,0,1.674,1.674H13.9Zm19.182-5.2H1.674A1.693,1.693,0,0,1,.489,5.817,1.659,1.659,0,0,1,0,4.633V1.766A1.674,1.674,0,0,1,.489.589,1.644,1.644,0,0,1,1.674.1H33.087a1.669,1.669,0,0,1,1.666,1.674V4.641a1.655,1.655,0,0,1-1.666,1.666" transform="translate(0 -0.092)" fill="#e40d2c"/>
</svg>
