<svg id="vivo" xmlns="http://www.w3.org/2000/svg" width="92.2" height="34.416" viewBox="0 0 92.2 34.416">
  <g id="Camada_1" data-name="Camada 1">
    <g id="Camada_2" data-name="Camada 2">
      <g id="Camada_1-2" data-name="Camada 1-2">
        <g id="_650199ff" data-name=" 650199ff">
          <path id="Caminho_22" data-name="Caminho 22" d="M45.543,0h.505a4.56,4.56,0,1,1-3.03.939A4.681,4.681,0,0,1,45.543,0Z" transform="translate(-11.903)" fill="#650199"/>
          <path id="Caminho_23" data-name="Caminho 23" d="M4.1,15.771a2.668,2.668,0,0,1,3.073.818,4.681,4.681,0,0,1,.519.918q2.845,5.691,5.691,11.446h.085l5.8-11.645a3.023,3.023,0,0,1,.505-.818,2.668,2.668,0,0,1,2.988-.726c.911.4,1.814.811,2.725,1.216a2.461,2.461,0,0,1,1.373,2.241,2.781,2.781,0,0,1-.42,1.423l-9.29,16.433a3.151,3.151,0,0,1-2.6,1.6h-2A3.158,3.158,0,0,1,9.959,37.44a6.638,6.638,0,0,1-.491-.811L.377,20.545A2.924,2.924,0,0,1,0,19.378v-.405a2.54,2.54,0,0,1,1.423-2.006C2.312,16.59,3.2,16.177,4.1,15.771Z" transform="translate(0 -4.496)" fill="#650199"/>
          <path id="Caminho_24" data-name="Caminho 24" d="M61.42,15.886a2.675,2.675,0,0,1,3.03.448,2.952,2.952,0,0,1,.64.975l3.834,7.711c.669,1.33,1.323,2.675,2,4l.092-.064Q74,22.978,76.978,16.988a2.689,2.689,0,0,1,3.258-1.216c.925.4,1.835.825,2.76,1.231a2.5,2.5,0,0,1,1.423,2.134,2.846,2.846,0,0,1-.405,1.494L74.851,36.771a6.3,6.3,0,0,1-.349.583,3.137,3.137,0,0,1-2.632,1.295H69.807a3.166,3.166,0,0,1-2.476-1.423c-.171-.277-.32-.569-.484-.839l-8.8-15.565a3.379,3.379,0,0,1-.505-1.316,2.476,2.476,0,0,1,1.522-2.582C59.841,16.6,60.616,16.22,61.42,15.886Z" transform="translate(-16.604 -4.504)" fill="#650199"/>
          <path id="Caminho_25" data-name="Caminho 25" d="M105.256,16.165A11.638,11.638,0,0,1,120.2,26.928v.754a11.631,11.631,0,0,1-7.363,10.464,11.908,11.908,0,0,1-3.848.8h-.754a11.631,11.631,0,0,1-2.952-22.764m2.461,6.644a4.6,4.6,0,1,0,3.166.562,4.6,4.6,0,0,0-3.166-.562Z" transform="translate(-27.995 -4.527)" fill="#650199"/>
          <path id="Caminho_26" data-name="Caminho 26" d="M44.263,16.1a2.846,2.846,0,0,1,.654-.057h2.369a2.8,2.8,0,0,1,2.732,2.845V35.417a4.8,4.8,0,0,1-.092,1.316,2.845,2.845,0,0,1-1.7,1.885,3.03,3.03,0,0,1-1.131.192H44.725a2.845,2.845,0,0,1-2.547-1.949,4.61,4.61,0,0,1-.135-1.565V19.49a4.481,4.481,0,0,1,.114-1.423,2.845,2.845,0,0,1,2.106-1.97Z" transform="translate(-12.13 -4.629)" fill="#650199"/>
        </g>
      </g>
    </g>
  </g>
</svg>
